<?xml version="1.0" encoding="utf-8"?>
<!-- Generator: Adobe Illustrator 27.4.1, SVG Export Plug-In . SVG Version: 6.00 Build 0)  -->
<svg version="1.1" id="Layer_1" xmlns="http://www.w3.org/2000/svg" xmlns:xlink="http://www.w3.org/1999/xlink" x="0px" y="0px"
	 viewBox="0 0 300 200" style="enable-background:new 0 0 300 200;" xml:space="preserve">
<style type="text/css">
	.st0{fill:#F28221;}
	.st1{fill:#FFFFFF;}
	.st2{fill:#4D4D4F;}
</style>
<rect x="24.82" y="66.11" class="st0" width="65.69" height="55.16"/>
<path class="st1" d="M59.45,79.23l-3.47,0.07l-0.34,1.1l-2.09,0.05l-0.15,0.41c-5.93,0.19-11.5,3.18-13.32,4.59l11.84-0.46
	l-0.29,0.95l3.06-0.07l-4.87,22.19l4.22-1.35l4.07-20.91l2.32-0.05l0.29-1.06l15.08-0.41c-2.81-1.7-9.97-3.56-14-3.51l0.14-0.5
	l-2.71,0.06L59.45,79.23z"/>
<path class="st1" d="M56.89,105.09c0.07,0,0.11-0.04,0.12-0.1v-0.05c-0.01-0.05-0.05-0.08-0.12-0.08h-0.15v0.23H56.89z
	 M57.01,105.19l0.14,0.25H57l-0.12-0.24h-0.14v0.23h-0.13v-0.69h0.28c0.16,0,0.24,0.07,0.25,0.19c0,0.02,0,0.03,0,0.05
	C57.13,105.09,57.09,105.16,57.01,105.19 M57.37,105.1c0-0.29-0.23-0.53-0.51-0.53c-0.28,0-0.51,0.24-0.51,0.53
	c0,0.29,0.23,0.53,0.51,0.53C57.14,105.63,57.37,105.39,57.37,105.1 M57.52,105.1c0,0.37-0.3,0.66-0.66,0.66
	c-0.37,0-0.66-0.3-0.66-0.66c0-0.37,0.29-0.66,0.66-0.66C57.22,104.44,57.52,104.73,57.52,105.1"/>
<path class="st2" d="M120.33,105.47c0,4.41-2.18,6.58-6.58,6.58h-2.63c-4.41,0-6.58-2.18-6.58-6.58V76.3h5.42v28.91
	c0,1.42,0.66,2.08,2.08,2.08h0.86c1.37,0,2.03-0.66,2.03-2.08V76.3h5.42V105.47z"/>
<polygon class="st2" points="130.05,111.75 130.05,81.21 125.19,81.21 125.19,76.3 140.33,76.3 140.33,81.21 135.47,81.21 
	135.47,111.75 "/>
<polygon class="st2" points="166.51,76.3 166.51,81.22 159.87,81.22 159.87,91.24 166.25,91.24 166.25,96.15 159.87,96.15 
	159.87,106.84 166.61,106.84 166.61,111.75 154.45,111.75 154.45,76.3 "/>
<polygon class="st2" points="177.7,76.3 177.7,106.84 183.67,106.84 183.67,111.75 172.28,111.75 172.28,76.3 "/>
<path class="st2" d="M205.8,81.06h-2.23v13.06h2.23c1.37,0,2.03-0.66,2.03-2.08v-8.91C207.82,81.72,207.17,81.06,205.8,81.06
	 M203.57,111.75h-5.42V76.3h8.51c4.41,0,6.58,2.18,6.58,6.58v9.42c0,4.41-2.18,6.58-6.58,6.58h-3.09V111.75z"/>
<path class="st2" d="M222.71,101.37h4.4l-2.23-17.93L222.71,101.37z M233.8,111.75h-5.37l-0.71-5.57h-5.62l-0.66,5.57h-5.01
	l5.06-35.5h7.19L233.8,111.75z"/>
<path class="st2" d="M253.9,99.7v5.77c0,4.41-2.18,6.58-6.58,6.58h-2.38c-4.41,0-6.53-2.18-6.53-6.53v-7.49h5.27v7.29
	c0,1.37,0.66,2.03,2.08,2.03h0.71c1.42,0,2.08-0.66,2.08-2.03v-4.86c0-1.47-0.51-2.13-1.52-2.89l-5.47-4
	c-2.43-1.72-3.14-3.39-3.14-6.13v-4.86c0-4.41,2.18-6.58,6.58-6.58h2.28c4.35,0,6.53,2.18,6.53,6.53v6.43h-5.32v-6.23
	c0-1.37-0.66-2.03-2.03-2.03h-0.66c-1.37,0-2.03,0.66-2.03,2.03v3.95c0,1.47,0.51,2.18,1.52,2.89l5.47,4
	C253.14,95.29,253.9,96.81,253.9,99.7"/>
<path class="st2" d="M268.13,80.76h-1.11c-1.42,0-2.08,0.66-2.08,2.08v22.38c0,1.42,0.66,2.08,2.08,2.08h1.11
	c1.37,0,2.03-0.66,2.03-2.08V82.84C270.16,81.42,269.5,80.76,268.13,80.76 M268.99,112.05h-2.89c-4.41,0-6.58-2.18-6.58-6.58V82.58
	c0-4.41,2.18-6.58,6.58-6.58h2.89c4.4,0,6.58,2.18,6.58,6.58v22.89C275.58,109.88,273.4,112.05,268.99,112.05"/>
</svg>
