<?xml version="1.0" encoding="UTF-8" standalone="no"?>
<!-- Created with Inkscape (http://www.inkscape.org/) -->

<svg
   width="32"
   height="32"
   viewBox="0 0 8.4666667 8.4666667"
   version="1.1"
   id="svg1459"
   inkscape:version="1.1.2 (0a00cf5339, 2022-02-04)"
   sodipodi:docname="icon.svg"
   inkscape:export-filename="/home/gray/wk/teros-texas.github.io/assets/img/TEROS.png"
   inkscape:export-xdpi="192"
   inkscape:export-ydpi="192"
   xmlns:inkscape="http://www.inkscape.org/namespaces/inkscape"
   xmlns:sodipodi="http://sodipodi.sourceforge.net/DTD/sodipodi-0.dtd"
   xmlns="http://www.w3.org/2000/svg"
   xmlns:svg="http://www.w3.org/2000/svg">
  <sodipodi:namedview
     id="namedview1461"
     pagecolor="#ffffff"
     bordercolor="#666666"
     borderopacity="1.0"
     inkscape:pageshadow="2"
     inkscape:pageopacity="0.0"
     inkscape:pagecheckerboard="0"
     inkscape:document-units="mm"
     showgrid="false"
     inkscape:snap-global="false"
     units="px"
     inkscape:zoom="8.5065501"
     inkscape:cx="7.1121664"
     inkscape:cy="18.162475"
     inkscape:window-width="1920"
     inkscape:window-height="1003"
     inkscape:window-x="0"
     inkscape:window-y="40"
     inkscape:window-maximized="1"
     inkscape:current-layer="layer1" />
  <defs
     id="defs1456" />
  <g
     inkscape:label="Layer 1"
     inkscape:groupmode="layer"
     id="layer1">
    <g
       id="g4576"
       transform="translate(-0.00736961,-0.02665552)">
      <rect
         style="fill:#ffffff;stroke:#500000;stroke-width:0.159079;stroke-linecap:round;stroke-linejoin:round;stroke-miterlimit:4;stroke-dasharray:none"
         id="rect4583"
         width="2.6951499"
         height="1.833379"
         x="3.0087996"
         y="1.6565465"
         ry="0.60034072" />
      <path
         style="fill:#ffffff;stroke:#500000;stroke-width:0.159079;stroke-linecap:butt;stroke-linejoin:miter;stroke-miterlimit:4;stroke-dasharray:none;stroke-opacity:1"
         d="m 3.1542938,1.4845398 c 0,0 -0.643356,-0.4174791 -0.7888384,-0.2718307 -0.2294824,0.229745 0.1836098,0.7218224 1.0459865,0.8748128 0.4930737,0.087474 1.346726,0.1314651 1.9574976,0.043708 C 6.4398314,1.9773629 6.6155907,1.5211084 6.5669882,1.4336921 6.469176,1.2577749 6.4186287,1.2664653 5.6201323,1.5861987 c 0,0 -0.2082364,-0.5097398 -0.3749364,-0.93439826 C 5.0784952,0.22714246 4.7090229,0.30134425 4.3722616,0.27920112 4.035501,0.25705627 3.7713315,0.25514912 3.4975531,0.68585047 3.2237739,1.1165493 3.1542938,1.4845397 3.1542938,1.4845398 Z"
         id="path3560"
         sodipodi:nodetypes="csssscsssc" />
      <path
         style="fill:none;stroke:#500000;stroke-width:0.159079;stroke-linecap:round;stroke-linejoin:miter;stroke-miterlimit:4;stroke-dasharray:none;stroke-opacity:1"
         d="m 4.0732465,2.8119419 c 0.1095281,0.237101 0.3496762,0.3267511 0.5800282,0.086875"
         id="path921"
         sodipodi:nodetypes="cc" />
      <path
         style="fill:none;stroke:#500000;stroke-width:0.159079;stroke-linecap:round;stroke-linejoin:miter;stroke-miterlimit:4;stroke-dasharray:none;stroke-opacity:1"
         d="M 3.8281101,2.5071726 C 3.8234169,2.336272 4.0851224,2.2938147 4.1376103,2.4605655"
         id="path1193" />
      <path
         style="fill:none;stroke:#500000;stroke-width:0.159079;stroke-linecap:round;stroke-linejoin:miter;stroke-miterlimit:4;stroke-dasharray:none;stroke-opacity:1"
         d="m 4.6996664,2.4651311 c 0.02796,-0.1686466 0.2928805,-0.1602016 0.3126759,0.013531"
         id="path1341" />
      <path
         style="fill:#a7a7a7;stroke:#500000;stroke-width:0.0530267;stroke-linecap:butt;stroke-linejoin:miter;stroke-miterlimit:4;stroke-dasharray:none;stroke-opacity:1"
         d="M 3.1542938,1.4777914 C 3.5404959,1.6899366 3.9729696,1.7921932 4.3801405,1.7953148 5.0131906,1.8001716 5.5594483,1.6110542 5.5778606,1.5750213 L 5.4950774,1.3633526 c -0.030257,0.05921 -1.2550122,0.4605891 -2.2416659,-0.081393 z"
         id="path2947"
         sodipodi:nodetypes="cscccc" />
      <ellipse
         style="fill:#ffffff;stroke:#500000;stroke-width:0.0530267;stroke-linecap:round;stroke-linejoin:round;stroke-miterlimit:4;stroke-dasharray:none"
         id="path1872"
         cx="4.3767896"
         cy="1.5752023"
         rx="0.44679797"
         ry="0.44831127" />
      <g
         id="g1768"
         transform="matrix(0.00670444,0,0,0.00672715,-1.4223809,-6.7414952)"
         style="stroke:none;stroke-width:7.8958;stroke-miterlimit:4;stroke-dasharray:none">
        <path
           style="fill:#a7a7a7;stroke:none;stroke-width:7.8958;stroke-linecap:butt;stroke-linejoin:miter;stroke-miterlimit:4;stroke-dasharray:none;stroke-opacity:1"
           d="m 902.77191,1286.9502 -14.55053,-45.9509 37.45414,-26.6915 -48.19832,-0.3612 -13.81115,-43.8691 -15.23766,45.7277 -44.91173,-1.0479 37.70281,29.2493 -14.61212,43.6088 39.20554,-28.038 z"
           id="path1614" />
        <path
           style="fill:#500000;stroke:none;stroke-width:7.8958;stroke-linecap:butt;stroke-linejoin:miter;stroke-miterlimit:4;stroke-dasharray:none;stroke-opacity:1"
           d="m 865.31082,1235.3988 22.91056,5.6005 14.55053,45.9509 z"
           id="path1378" />
        <path
           style="fill:#500000;stroke:none;stroke-width:7.8958;stroke-linecap:butt;stroke-linejoin:miter;stroke-miterlimit:4;stroke-dasharray:none;stroke-opacity:1"
           d="m 864.05953,1236.0575 1.75336,23.5199 -39.20554,28.038 z"
           id="path1493"
           inkscape:transform-center-x="18.021752"
           inkscape:transform-center-y="26.969429" />
        <path
           style="fill:#500000;stroke:none;stroke-width:7.8958;stroke-linecap:butt;stroke-linejoin:miter;stroke-miterlimit:4;stroke-dasharray:none;stroke-opacity:1"
           d="m 863.0464,1235.071 -21.82693,8.9356 -38.7809,-28.6225 z"
           id="path1495"
           inkscape:transform-center-x="31.489387"
           inkscape:transform-center-y="-5.171671" />
        <path
           style="fill:#500000;stroke:none;stroke-width:7.8958;stroke-linecap:butt;stroke-linejoin:miter;stroke-miterlimit:4;stroke-dasharray:none;stroke-opacity:1"
           d="m 863.67155,1233.8026 -15.24316,-17.9974 15.23766,-45.7277 z"
           id="path1497"
           inkscape:transform-center-x="8.181902"
           inkscape:transform-center-y="-32.926971" />
        <path
           style="fill:#500000;stroke:none;stroke-width:7.8958;stroke-linecap:butt;stroke-linejoin:miter;stroke-miterlimit:4;stroke-dasharray:none;stroke-opacity:1"
           d="m 865.07105,1234.0052 12.40615,-20.0586 48.19832,0.3612 z"
           id="path1499"
           inkscape:transform-center-x="-31.141413"
           inkscape:transform-center-y="-10.891121" />
      </g>
      <rect
         style="fill:#ffffff;stroke:#500000;stroke-width:0.159079;stroke-linecap:round;stroke-linejoin:round;stroke-miterlimit:4;stroke-dasharray:none"
         id="rect4857"
         width="2.6951499"
         height="3.1321642"
         x="3.0087996"
         y="3.6125903"
         ry="0.60034072" />
      <g
         id="g5555"
         transform="matrix(0.0045009,0,0,0.00451614,0.47932296,-4.004568)"
         style="stroke-width:2.35228">
        <path
           style="fill:none;stroke:#500000;stroke-width:35.2842;stroke-linecap:round;stroke-linejoin:round;stroke-miterlimit:4;stroke-dasharray:none;stroke-opacity:1"
           d="m 1164.4157,1864.5226 c 177.4989,40.9174 206.6861,-241.9202 222.7414,-338.9347 l -52.1291,-92.0024 100.7593,-115.935 -30.9982,104.865 35.5684,45.3406 53.4853,-34.752 0.086,-106.8197 55.9757,127.0592 -63.4458,80.1249 c 0,0 -44.3224,479.6065 -324.7443,456.9971"
           id="path4911"
           sodipodi:nodetypes="ccccccccccc" />
        <path
           style="fill:none;stroke:#500000;stroke-width:35.2842;stroke-linecap:round;stroke-linejoin:miter;stroke-miterlimit:4;stroke-dasharray:none;stroke-opacity:1"
           d="m 1380.7352,1589.0794 91.9862,25.7376"
           id="path5212" />
        <path
           style="fill:none;stroke:#500000;stroke-width:35.2842;stroke-linecap:round;stroke-linejoin:miter;stroke-miterlimit:4;stroke-dasharray:none;stroke-opacity:1"
           d="m 1358.8084,1705.7186 83.567,18.3193"
           id="path5214" />
        <path
           style="fill:none;stroke:#500000;stroke-width:35.2842;stroke-linecap:round;stroke-linejoin:miter;stroke-miterlimit:4;stroke-dasharray:none;stroke-opacity:1"
           d="m 1318.1986,1792.0815 80.0475,37.9274"
           id="path5216"
           sodipodi:nodetypes="cc" />
        <path
           style="fill:none;stroke:#500000;stroke-width:35.2842;stroke-linecap:round;stroke-linejoin:miter;stroke-miterlimit:4;stroke-dasharray:none;stroke-opacity:1"
           d="m 1263.5809,1850.817 63.3278,79.5139"
           id="path5218"
           sodipodi:nodetypes="cc" />
        <path
           style="fill:none;stroke:#500000;stroke-width:35.2842;stroke-linecap:round;stroke-linejoin:miter;stroke-miterlimit:4;stroke-dasharray:none;stroke-opacity:1"
           d="m 1208.0751,1866.8145 21.2301,118.9523"
           id="path5220" />
      </g>
      <g
         id="g5569"
         transform="matrix(-0.0045009,0,0,-0.00451614,8.2130678,13.397552)"
         style="stroke-width:2.35228">
        <path
           style="fill:none;stroke:#500000;stroke-width:35.2842;stroke-linecap:round;stroke-linejoin:round;stroke-miterlimit:4;stroke-dasharray:none;stroke-opacity:1"
           d="m 1164.4157,1864.5226 c 177.4989,40.9174 206.6861,-241.9202 222.7414,-338.9347 l -52.1291,-92.0024 100.7593,-115.935 -30.9982,104.865 35.5684,45.3406 53.4853,-34.752 0.086,-106.8197 55.9757,127.0592 -63.4458,80.1249 c 0,0 -44.3224,479.6065 -324.7443,456.9971"
           id="path5557"
           sodipodi:nodetypes="ccccccccccc" />
        <path
           style="fill:none;stroke:#500000;stroke-width:35.2842;stroke-linecap:round;stroke-linejoin:miter;stroke-miterlimit:4;stroke-dasharray:none;stroke-opacity:1"
           d="m 1380.7352,1589.0794 91.9862,25.7376"
           id="path5559" />
        <path
           style="fill:none;stroke:#500000;stroke-width:35.2842;stroke-linecap:round;stroke-linejoin:miter;stroke-miterlimit:4;stroke-dasharray:none;stroke-opacity:1"
           d="m 1358.8084,1705.7186 83.567,18.3193"
           id="path5561" />
        <path
           style="fill:none;stroke:#500000;stroke-width:35.2842;stroke-linecap:round;stroke-linejoin:miter;stroke-miterlimit:4;stroke-dasharray:none;stroke-opacity:1"
           d="m 1318.1986,1792.0815 80.0475,37.9274"
           id="path5563"
           sodipodi:nodetypes="cc" />
        <path
           style="fill:none;stroke:#500000;stroke-width:35.2842;stroke-linecap:round;stroke-linejoin:miter;stroke-miterlimit:4;stroke-dasharray:none;stroke-opacity:1"
           d="m 1263.5809,1850.817 63.3278,79.5139"
           id="path5565"
           sodipodi:nodetypes="cc" />
        <path
           style="fill:none;stroke:#500000;stroke-width:35.2842;stroke-linecap:round;stroke-linejoin:miter;stroke-miterlimit:4;stroke-dasharray:none;stroke-opacity:1"
           d="m 1208.0751,1866.8145 21.2301,118.9523"
           id="path5567" />
      </g>
      <g
         id="g6805"
         transform="matrix(0.0045009,0,0,0.00451614,0.47932296,-4.004568)"
         style="stroke-width:2.35228">
        <path
           style="fill:none;stroke:#500000;stroke-width:35.2842;stroke-linecap:butt;stroke-linejoin:round;stroke-miterlimit:4;stroke-dasharray:none;stroke-opacity:1"
           d="m 894.06329,2407.36 139.40181,-1.8553 5.7274,230.981 c 0.7823,31.5475 60.8827,61.4914 85.9915,49.6684 l 38.3827,-18.0733 c 24.4046,-11.4914 43.7717,23.7417 26.1963,35.1381 -34.2882,22.2335 -75.3422,37.0469 -116.1225,42.4107 -38.7184,5.0926 -67.9698,-12.9725 -95.60625,-24.7 l -1.4588,20.6868 -62.13759,-6.391 c -17.44849,-1.7946 -23.37971,-23.6213 -23.23541,-38.2305 z"
           id="path5604"
           sodipodi:nodetypes="ccsssssccssc" />
        <path
           style="fill:none;stroke:#500000;stroke-width:35.2842;stroke-linecap:butt;stroke-linejoin:miter;stroke-miterlimit:4;stroke-dasharray:none;stroke-opacity:1"
           d="m 894.05975,2583.2022 66.58827,41.051 77.63808,-43.6877"
           id="path6688" />
      </g>
      <g
         id="g6811"
         transform="matrix(-0.0045009,0,0,0.00451614,8.2620884,-4.004568)"
         style="stroke-width:2.35228">
        <path
           style="fill:none;stroke:#500000;stroke-width:35.2842;stroke-linecap:butt;stroke-linejoin:round;stroke-miterlimit:4;stroke-dasharray:none;stroke-opacity:1"
           d="m 894.06329,2407.36 139.40181,-1.8553 5.7274,230.981 c 0.7823,31.5475 60.8827,61.4914 85.9915,49.6684 l 38.3827,-18.0733 c 24.4046,-11.4914 43.7717,23.7417 26.1963,35.1381 -34.2882,22.2335 -75.3422,37.0469 -116.1225,42.4107 -38.7184,5.0926 -67.9698,-12.9725 -95.60625,-24.7 l -1.4588,20.6868 -62.13759,-6.391 c -17.44849,-1.7946 -23.37971,-23.6213 -23.23541,-38.2305 z"
           id="path6807"
           sodipodi:nodetypes="ccsssssccssc" />
        <path
           style="fill:none;stroke:#500000;stroke-width:35.2842;stroke-linecap:butt;stroke-linejoin:miter;stroke-miterlimit:4;stroke-dasharray:none;stroke-opacity:1"
           d="m 894.05975,2583.2022 66.58827,41.051 77.63808,-43.6877"
           id="path6809" />
      </g>
      <text
         xml:space="preserve"
         style="font-style:normal;font-variant:normal;font-weight:normal;font-stretch:normal;font-size:2.21223px;line-height:1.25;font-family:'DejaVu Sans Mono';-inkscape-font-specification:'DejaVu Sans Mono';fill:#500000;stroke-width:0.0106052"
         x="3.094461"
         y="5.5561323"
         id="text20607"
         transform="scale(0.99831076,1.0016921)"><tspan
           sodipodi:role="line"
           id="tspan20605"
           x="3.094461"
           y="5.5561323"
           style="font-style:normal;font-variant:normal;font-weight:bold;font-stretch:normal;font-family:'DejaVu Sans Mono';-inkscape-font-specification:'DejaVu Sans Mono';fill:#500000;stroke-width:0.0106052">24</tspan></text>
      <path
         style="fill:#500000;stroke:none;stroke-width:0.0106052px;stroke-linecap:butt;stroke-linejoin:miter;stroke-opacity:1"
         d="M 4.728861,3.5130105 4.4416407,3.7759608 4.6667613,4.1035702 4.9498593,3.5787523 Z"
         id="path41506" />
      <path
         style="fill:#500000;stroke:none;stroke-width:0.0106052px;stroke-linecap:butt;stroke-linejoin:miter;stroke-opacity:1"
         d="M 4.0697273,3.5101145 4.3569461,3.7730628 4.131827,4.1006739 3.8487297,3.5758559 Z"
         id="path41654" />
      <path
         style="fill:none;stroke:#500000;stroke-width:0.159079;stroke-linecap:round;stroke-linejoin:miter;stroke-miterlimit:4;stroke-dasharray:none;stroke-opacity:1"
         d="M 4.3965056,3.8216335 V 6.0202139"
         id="path41689"
         sodipodi:nodetypes="cc" />
      <path
         style="fill:#a7a7a7;stroke:#500000;stroke-width:0.159079;stroke-linecap:butt;stroke-linejoin:miter;stroke-miterlimit:4;stroke-dasharray:none;stroke-opacity:1"
         d="M 2.9342775,5.7784785 H 5.7844657 V 6.144127 h -2.85981 V 5.7789611"
         id="path42428" />
      <g
         id="g41984"
         transform="matrix(0.00601228,0,0,0.00603264,-0.78793783,-1.2882777)"
         style="stroke:none;stroke-width:8.80479;stroke-miterlimit:4;stroke-dasharray:none">
        <path
           style="fill:#a7a7a7;stroke:none;stroke-width:8.80479;stroke-linecap:butt;stroke-linejoin:miter;stroke-miterlimit:4;stroke-dasharray:none;stroke-opacity:1"
           d="m 902.77191,1286.9502 -14.55053,-45.9509 37.45414,-26.6915 -48.19832,-0.3612 -13.81115,-43.8691 -15.23766,45.7277 -44.91173,-1.0479 37.70281,29.2493 -14.61212,43.6088 39.20554,-28.038 z"
           id="path41972" />
        <path
           style="fill:#500000;stroke:none;stroke-width:8.80479;stroke-linecap:butt;stroke-linejoin:miter;stroke-miterlimit:4;stroke-dasharray:none;stroke-opacity:1"
           d="m 865.31082,1235.3988 22.91056,5.6005 14.55053,45.9509 z"
           id="path41974" />
        <path
           style="fill:#500000;stroke:none;stroke-width:8.80479;stroke-linecap:butt;stroke-linejoin:miter;stroke-miterlimit:4;stroke-dasharray:none;stroke-opacity:1"
           d="m 864.05953,1236.0575 1.75336,23.5199 -39.20554,28.038 z"
           id="path41976"
           inkscape:transform-center-x="18.021752"
           inkscape:transform-center-y="26.969429" />
        <path
           style="fill:#500000;stroke:none;stroke-width:8.80479;stroke-linecap:butt;stroke-linejoin:miter;stroke-miterlimit:4;stroke-dasharray:none;stroke-opacity:1"
           d="m 863.0464,1235.071 -21.82693,8.9356 -38.7809,-28.6225 z"
           id="path41978"
           inkscape:transform-center-x="31.489387"
           inkscape:transform-center-y="-5.171671" />
        <path
           style="fill:#500000;stroke:none;stroke-width:8.80479;stroke-linecap:butt;stroke-linejoin:miter;stroke-miterlimit:4;stroke-dasharray:none;stroke-opacity:1"
           d="m 863.67155,1233.8026 -15.24316,-17.9974 15.23766,-45.7277 z"
           id="path41980"
           inkscape:transform-center-x="8.181902"
           inkscape:transform-center-y="-32.926971" />
        <path
           style="fill:#500000;stroke:none;stroke-width:8.80479;stroke-linecap:butt;stroke-linejoin:miter;stroke-miterlimit:4;stroke-dasharray:none;stroke-opacity:1"
           d="m 865.07105,1234.0052 12.40615,-20.0586 48.19832,0.3612 z"
           id="path41982"
           inkscape:transform-center-x="-31.141413"
           inkscape:transform-center-y="-10.891121" />
      </g>
      <path
         id="rect42780"
         class="cls-1"
         style="fill:#500000;stroke-width:0.0106052"
         d="m 3.9538455,5.6897141 h 0.8512581 c 0.4361628,0 0.4765628,0.8609291 0,0.8609291 H 3.9538455 c -0.4050724,0 -0.4484989,-0.8609291 0,-0.8609291 z"
         sodipodi:nodetypes="sssss" />
      <polygon
         class="cls-2"
         points="180.16,126.05 180.16,146.61 177.77,146.61 176.53,146.61 176.53,147.84 176.53,154.72 176.53,155.95 177.77,155.95 192.27,155.95 193.5,155.95 193.5,154.72 193.5,147.84 193.5,146.61 192.27,146.61 189.77,146.61 189.77,117.71 192.27,117.71 193.5,117.71 193.5,116.48 193.5,109.6 193.5,108.37 192.27,108.37 178.9,108.37 178.13,108.37 177.78,109.07 168.09,129.25 158.36,109.06 158.02,108.37 157.25,108.37 144.33,108.37 143.11,108.37 143.11,109.6 143.11,116.48 143.11,117.71 144.33,117.71 146.54,117.71 146.54,146.61 144.15,146.61 142.92,146.61 142.92,147.84 142.92,154.72 142.92,155.95 144.15,155.95 158.66,155.95 159.89,155.95 159.89,154.72 159.89,147.84 159.89,146.61 158.66,146.61 156.15,146.61 156.15,126.1 166.99,148.45 168.09,150.73 169.21,148.45 "
         id="polygon42782"
         style="fill:#ffffff;stroke-width:1.76096"
         transform="matrix(0.00601228,0,0,0.00603264,3.6179005,5.3547869)" />
      <path
         class="cls-2"
         d="M 4.2672275,6.2390525 H 4.2440104 L 4.168493,6.0641061 H 4.183035 V 6.0075191 H 4.061837 v 0.056407 H 4.078548 L 4.003099,6.2388724 H 3.971662 v 0.056404 h 0.1100258 v -0.056404 h -0.015999 l 0.012558,-0.02914 h 0.090792 l 0.012508,0.02914 h -0.016896 v 0.056404 h 0.110083 V 6.2388708 Z M 4.1446963,6.1535689 h -0.042082 l 0.021048,-0.048925 z"
         id="path42784"
         style="fill:#ffffff;stroke-width:0.0106052" />
      <polygon
         class="cls-2"
         points="178.32,100.56 178.32,73.49 178.32,72.08 176.91,72.08 75.1,72.08 73.69,72.08 73.69,73.49 73.69,100.69 73.69,102.1 75.1,102.1 92.68,102.1 94.09,102.1 94.09,100.69 94.09,90.59 115.81,90.59 115.81,162.26 105.7,162.26 104.3,162.26 104.3,163.67 104.3,181.25 104.3,182.66 105.7,182.66 146.3,182.66 147.71,182.66 147.71,181.25 147.71,163.67 147.71,162.26 146.3,162.26 136.21,162.26 136.21,90.59 157.8,90.59 157.8,100.56 157.8,101.97 159.21,101.97 176.91,101.97 178.32,101.97 "
         id="polygon42786"
         style="fill:#ffffff;stroke-width:1.76096"
         transform="matrix(0.00601228,0,0,0.00603264,3.6179005,5.3547869)" />
      <polygon
         class="cls-3"
         points="143.52,166.2 143.52,178.34 139.22,174.23 139.22,170.63 "
         id="polygon42788"
         style="fill:#b1b3b6;stroke-width:1.76096"
         transform="matrix(0.00601228,0,0,0.00603264,3.6179005,5.3547869)" />
      <polygon
         class="cls-3"
         points="127.75,170.76 127.75,82.14 132.06,86.43 132.06,166.52 "
         id="polygon42790"
         style="fill:#b1b3b6;stroke-width:1.76096"
         transform="matrix(0.00601228,0,0,0.00603264,3.6179005,5.3547869)" />
      <polygon
         class="cls-3"
         points="77.89,76.28 171.98,76.28 166.42,80.58 82.31,80.58 "
         id="polygon42792"
         style="fill:#b1b3b6;stroke-width:1.76096"
         transform="matrix(0.00601228,0,0,0.00603264,3.6179005,5.3547869)" />
      <polygon
         class="cls-3"
         points="169.96,93.92 169.96,82.98 174.26,78.56 174.26,98.03 "
         id="polygon42794"
         style="fill:#b1b3b6;stroke-width:1.76096"
         transform="matrix(0.00601228,0,0,0.00603264,3.6179005,5.3547869)" />
    </g>
  </g>
</svg>
